<svg width="512" height="512" viewBox="0 0 512 512" fill="none" xmlns="http://www.w3.org/2000/svg">
<rect width="512" height="512" rx="128" fill="#1B4778"/>
<path d="M286.857 76H225.143V86.2857H286.857V76Z" fill="white"/>
<path d="M338.286 96.5714H173.714V106.857H338.286V96.5714Z" fill="white"/>
<path d="M214.857 117.143H112V127.429H214.857V117.143Z" fill="white"/>
<path d="M400 117.143H256V127.429H400V117.143Z" fill="white"/>
<path d="M410.286 137.714H276.571V148H410.286V137.714Z" fill="white"/>
<path d="M410.286 220H276.571V230.286H410.286V220Z" fill="white"/>
<path d="M328 322.857H194.286V333.143H328V322.857Z" fill="white"/>
<path d="M328 405.143H184V415.429H328V405.143Z" fill="white"/>
<path d="M328 343.428H122.286V353.714H328V343.428Z" fill="white"/>
<path d="M410.286 240.571H296.8V250.857H410.286V240.571Z" fill="white"/>
<path d="M410.286 261.143H328V271.429H410.286V261.143Z" fill="white"/>
<path d="M410.286 281.714H369.143V292H410.286V281.714Z" fill="white"/>
<path d="M410.286 158.286H256V168.571H410.286V158.286Z" fill="white"/>
<path d="M410.286 199.428H266.286V209.714H410.286V199.428Z" fill="white"/>
<path d="M410.286 178.857H245.714V189.143H410.286V178.857Z" fill="white"/>
<path d="M153.143 137.714H101.714V148H153.143V137.714Z" fill="white"/>
<path d="M142.857 199.428H101.714V209.714H142.857V199.428Z" fill="white"/>
<path d="M194.286 199.428H163.429V209.714H194.286V199.428Z" fill="white"/>
<path d="M369.143 302.286H348.571V312.571H369.143V302.286Z" fill="white"/>
<path d="M389.714 343.428H348.571V353.714H389.714V343.428Z" fill="white"/>
<path d="M410.286 302.286H389.714V312.571H410.286V302.286Z" fill="white"/>
<path d="M132.571 178.857H101.714V189.143H132.571V178.857Z" fill="white"/>
<path d="M132.571 158.286H101.714V168.571H132.571V158.286Z" fill="white"/>
<path d="M204.571 220H101.714V230.286H204.571V220Z" fill="white"/>
<path d="M307.428 302.286H194.286V312.571H307.428V302.286Z" fill="white"/>
<path d="M297.143 425.714H214.857V436H297.143V425.714Z" fill="white"/>
<path d="M276.571 281.714H194.286V292H276.571V281.714Z" fill="white"/>
<path d="M245.714 364H132.571V374.286H245.714V364Z" fill="white"/>
<path d="M276.571 384.571H153.143V394.857H276.571V384.571Z" fill="white"/>
<path d="M225.143 240.571H101.714V250.857H225.143V240.571Z" fill="white"/>
<path d="M245.714 261.143H101.714V271.429H245.714V261.143Z" fill="white"/>
<path d="M173.714 281.714H101.714V292H173.714V281.714Z" fill="white"/>
<path d="M163.429 302.286H101.714V312.571H163.429V302.286Z" fill="white"/>
<path d="M400 322.857H358.857V333.143H400V322.857Z" fill="white"/>
<path d="M358.857 384.571H317.714V394.857H358.857V384.571Z" fill="white"/>
<path d="M379.429 364H317.714V374.286H379.429V364Z" fill="white"/>
<path d="M163.086 322.857H111.657V333.143H163.086V322.857Z" fill="white"/>
</svg>
